<?xml version="1.0" encoding="iso-8859-1"?>
<!-- Uploaded to: SVG Repo, www.svgrepo.com, Generator: SVG Repo Mixer Tools -->
<svg height="800px" width="800px" version="1.1" id="Layer_1" xmlns="http://www.w3.org/2000/svg" xmlns:xlink="http://www.w3.org/1999/xlink" 
	 viewBox="0 0 512 512" xml:space="preserve">
<path style="fill:#FFCD54;" d="M0,256.006C0,397.402,114.606,512.004,255.996,512C397.394,512.004,512,397.402,512,256.006
	C512.009,114.61,397.394,0,255.996,0C114.606,0,0,114.614,0,256.006z"/>
<path style="fill:#F4BA41;" d="M507.847,302.132c-5.963-5.994-198.539-197.444-199.026-197.937
	c-13.634-14.513-32.423-23.662-52.823-23.662c-40.473,0-74.667,35.961-74.667,78.531V200h-57.874
	c-10.347,0-17.802,9.799-18.777,18.885L84.382,410.05c-0.599,5.535,1.178,11.069,4.86,15.167c0.355,0.396,0.786,0.697,1.17,1.058
	c0.11,0.128,0.181,0.282,0.295,0.407c0.355,0.397,0.786,0.697,1.172,1.058c0.11,0.129,46.815,46.838,47.2,47.201
	c4.842,5.717,10.119,11.025,15.543,16.189c31.088,13.42,65.357,20.868,101.372,20.867
	C381.645,512.003,486.128,421.506,507.847,302.132z"/>
<path style="fill:#F4F6F9;" d="M427.615,409.22l-20.304-190.341c-0.97-9.078-8.426-18.878-18.772-18.878h-57.874v-40.935
	c0-42.569-34.194-78.531-74.667-78.531s-74.667,35.963-74.667,78.531V200h-57.874c-10.347,0-17.803,9.801-18.777,18.885
	L84.382,410.051c-0.598,5.534,1.178,11.069,4.86,15.167c3.566,3.974,8.637,6.249,13.913,6.249h305.689
	c5.13,0,9.946-2.217,13.558-6.242C426.339,420.843,428.239,415.009,427.615,409.22z M196.266,159.065
	c0-34.475,27.355-63.598,59.733-63.598s59.733,29.123,59.733,63.598V200H196.266V159.065z M411.293,415.243
	c-0.43,0.481-1.324,1.291-2.45,1.291H103.154c-1.429,0-2.37-0.81-2.8-1.291c-0.861-0.956-1.268-2.268-1.123-3.61l20.3-191.166
	c0.306-2.851,2.672-5.534,3.926-5.534h57.874v14.933c-3.649,0-6.767,2.64-7.364,6.242l-7.467,44.8
	c-0.361,2.165,0.247,4.375,1.666,6.052s3.504,2.64,5.698,2.64h29.867c2.195,0,4.281-0.962,5.698-2.64
	c1.418-1.678,2.027-3.887,1.666-6.052l-7.467-44.8c-0.598-3.602-3.715-6.242-7.364-6.242v-14.933h119.467v14.933
	c-3.649,0-6.767,2.64-7.364,6.242l-7.467,44.8c-0.361,2.165,0.247,4.375,1.666,6.052c1.419,1.677,3.504,2.64,5.698,2.64h29.867
	c2.195,0,4.281-0.962,5.698-2.64c1.418-1.678,2.027-3.887,1.666-6.052l-7.467-44.8c-0.598-3.602-3.715-6.242-7.364-6.242v-14.933
	h57.874c1.254,0,3.62,2.684,3.926,5.534l20.304,190.349C412.933,412.348,412.368,414.047,411.293,415.243z M186.491,251.801
	c0.736,0.243,1.489,0.466,2.308,0.466c0.819,0,1.571-0.222,2.308-0.466l3.81,22.866h-12.236L186.491,251.801z M320.891,251.801
	c0.736,0.243,1.489,0.466,2.308,0.466s1.571-0.222,2.308-0.466l3.81,22.866h-12.236L320.891,251.801z"/>
</svg>